<?xml version="1.0" encoding="UTF-8"?>
<svg id="_Слой_1" xmlns="http://www.w3.org/2000/svg" version="1.1" viewBox="0 0 800 1000">
  <!-- Generator: Adobe Illustrator 29.4.0, SVG Export Plug-In . SVG Version: 2.1.0 Build 152)  -->
  <defs>
    <style>
      .st0 {
        fill: #382975;
        font-family: MyriadPro-Bold, 'Myriad Pro';
        font-size: 60px;
        font-weight: 700;
      }

      .st0, .st1 {
        isolation: isolate;
      }

      .st2 {
        fill: #fff;
      }

      .st3 {
        fill: none;
        stroke: #382975;
        stroke-miterlimit: 10;
        stroke-width: 37px;
      }

      .st4 {
        fill: #322b73;
        fill-rule: evenodd;
      }
    </style>
  </defs>
  <g>
    <g>
      <path d="M324.01,563.65c-.17,3.02,5.08,8.67,2.84,11.08s-5.14-2.23-6.12-3.88c-2.35-3.96-3.76-9.92-2.54-14.43.56-2.08,1.84-4.68,4.48-3.53,2.39,1.04.86,4.73,1.02,6.68.59.05,1.1-.3,1.69-.28,3.86.12,8.84,1.51,12.92,1.85,25.62,2.12,56.97-1.3,82.59-4.75,17.25-2.33,46.51-6.36,59.91-17.7,3.88-3.28,5.91-6.78,8.98-10.5,1.03-1.25,1.75-2.12,3.51-1.36s1.26,2.27.59,3.57c-12.34,23.84-54.75,28.38-78.63,31.34-25.51,3.16-56.17,6.3-81.62,3.46-3.21-.36-6.44-1.01-9.62-1.53v-.02h0Z"/>
      <path d="M541.67,489.56c2.04-.46,3.57,1.4,2.67,3.31-18.36,23.71-30.11,46.11-33.65,76.32-.56,4.79-.45,10.74-1.37,15.28-.67,3.32-4.63,2.68-4.61-.52.03-6.15,1.33-15.12,2.22-21.36,3.51-24.69,12.49-42.06,26.41-62.2,1.99-2.87,4.82-7.5,7.03-9.94.39-.43.71-.76,1.31-.9h-.01Z"/>
    </g>
    <g>
      <path d="M301.61,403.16l58.7-.07c2.86.33,2.72,3.2,0,3.47h-58.14c-2.37-.17-2.94-2.64-.55-3.4h-.01Z"/>
      <path d="M370.23,434.48c-.77-.54.23-3.62.28-4.53.18-3.54-.02-5.9-1.11-9.25-.64-1.99-3.48-7.31-3.23-8.89.04-.25.58-1.47.78-1.52,4.07.09,5.92,3.5,7.26,6.85,1.65,4.15,2.06,6.73.92,11.15-.34,1.34-2.95,7.56-4.9,6.19h0Z"/>
      <g>
        <path d="M299.34,415.97c-2.16.14-4.62.45-6.54,1.63-6.67,5.2-12.65,11.3-19.23,16.59-.87.7-3.24,2.66-4.02.88-.66-1.5.08-1.99,1.04-2.92,5.1-4.93,13.07-11.93,18.71-16.17s11.44-3.05,18.21-3.46c11.91,1.13,24.91-.4,36.78.61,2.64.23,12.44,3.38,14.82,4.66,1.84.99,1.25,3.44-.92,3.15-1.53-.2-10.82-4.13-11.24-3.71,1.74,4.33,4.41,8.21,6.12,12.57.31.78.96,2.27,1.09,3,.09.52.21.83-.45.77-1.24-.12-3.01-3.02-3.75-4.11-2.75-4.06-5.01-8.43-7.4-12.71l-8.17-.47c-.28.24,1.69,2.49,1.94,2.92,3.91,6.69,3.05,13.58-1.95,19.38,4.55-.27,9.12-.19,13.68-.3,3.27-.08,6.73-.68,10.05-.33,1.51.16,2.31,1.25,1.43,2.62-.32.49-3.7.8-4.57.85-8.98.53-18.35.37-27.36.6-10.62.28-27.61,2.44-37.3-1.32-1.61-.63-11.22-5.8-11.69-6.84-.63-1.39.04-2.53,1.57-2.53,1.16,0,5.7,3.36,7.17,4.16,2.41,1.3,7.79,3.72,10.42,3.72h6.44c-6.66-6.69-6.63-16.54,0-23.25-1.61.08-3.26-.1-4.87,0h0ZM326.75,419.19c-5.09.83-3.36,6.94,2.3,5.75,4.77-1,3.02-6.62-2.3-5.75Z"/>
        <path class="st2" d="M326.75,419.19c5.32-.86,7.07,4.75,2.3,5.75-5.66,1.19-7.39-4.93-2.3-5.75Z"/>
      </g>
    </g>
    <g>
      <g>
        <path d="M291.89,373.33c14.75-1.01,33.86,3.02,48.93,4.62,11.44,1.22,23.93,1.49,35.16,3.18,5.34.8,8.29,6.73,4.29,10.82-2.74,2.8-5.05,1.46-8.32,1.39-11.65-.26-23.6-.64-35.2-1.88-15.51-1.65-30.47-7.1-46.04-3.3-12.45,3.04-24.53,10.45-35.8,16.35-1.95.6-3.04-.4-2.36-2.37,10.88-13.52,20.39-27.52,39.36-28.82h-.02,0Z"/>
        <path d="M267.76,378.27l-12.25,11.47c-2.03,1.49-3.83,3.33-5.83,4.86-1.17.9-3.69,3.55-5.1,2.13-.39-.63-.55-1.42-.23-2.12.5-1.1,6.53-4.47,7.99-5.53,3.06-2.24,11.2-10.37,14.17-10.99.51-.11.79.14,1.26.18h-.01Z"/>
      </g>
      <g>
        <path d="M536.93,384.04c6.31,5.48,11.27,12.67,16.61,19.05.7,2.13-.6,3.04-2.58,2.26-3.15-1.23-7.52-4.25-10.76-5.89-8.99-4.55-20.02-10.07-30.06-11.42-13.01-1.75-27.94,2.96-41.12,4.35-11.56,1.22-23.29,1.59-34.89,1.88-3.32.08-5.55,1.44-8.28-1.44-3.98-4.2-1.05-9.98,4.24-10.77,12.23-1.84,25.84-2.16,38.3-3.49,10.06-1.07,20.11-2.8,30.17-3.77,15.47-1.49,26.25-1.31,38.37,9.23h0Z"/>
        <path d="M561.48,397.67c-1.06,1.07-2.64-.23-3.53-.87-4.22-3.06-7.68-6.74-11.47-10.21-2.7-2.47-5.66-4.7-8.17-7.38.47-.06.73-.28,1.25-.18,2.7.51,10.15,7.86,12.74,9.91,1.58,1.25,8.98,5.66,9.42,6.61.26.58.2,1.68-.23,2.12h-.01Z"/>
      </g>
    </g>
    <g>
      <path d="M445.21,404.1l58.7-.07c2.86.33,2.72,3.2,0,3.47h-58.14c-2.37-.17-2.94-2.64-.55-3.4h-.01Z"/>
      <path d="M436.15,435.1c-2.49,1.35-4.63-3.68-5.15-5.61-1.3-4.78-.69-7.89,1.18-12.34.94-2.23,3.52-6.17,6.36-5.89,3.26.32-.5,6.65-1.02,8.09-1.51,4.19-2.21,6.65-1.96,11.23.05.85.87,4.09.59,4.52Z"/>
      <g>
        <path d="M508.3,440.17c3.39-.33,7.44-2.11,10.42-3.72,1.49-.8,6.02-4.12,7.17-4.15,1.48-.04,2.15,1.25,1.57,2.52-.65,1.43-11.12,6.66-13.11,7.32-7.75,2.57-16.3,1.3-24.27,1.16-13.06-.23-26.24-.29-39.31-.93-.72-.04-3.23-.21-3.69-.37-1.16-.4-1.43-2.84.88-3.09,3.42-.37,6.99.24,10.36.33,4.46.11,8.92.04,13.37.3-4.25-4.85-5.69-11.03-3.15-17.13l3.15-5.17-8.17.47c-2.44,4.32-4.74,8.78-7.53,12.9-.46.67-2.76,3.93-3.3,3.93l-.78-.51c1.53-5.67,4.98-10.48,7.21-15.84l-11.24,3.72c-1.88.24-2.99-2.13-.7-3.25,2.98-1.45,11.72-4.32,14.92-4.57,10.62-.83,22.87-.26,33.65-.29,7.42-.02,14.67-1.62,21.03,3.14s12.58,11.62,19.19,16.63c1.57,1.24.73,3.7-1.44,3.03-.4-.12-1.59-1.11-2.02-1.45-6.58-5.29-12.57-11.37-19.23-16.59-1.7-.98-4.67-1.63-6.54-1.63h-4.87c6.65,6.65,6.65,16.59,0,23.25,2.08-.14,4.39.2,6.44,0h0ZM498.95,421.7c-4.37.68-2.34,5.01,2.22,3.79,3.73-.99,1.55-4.38-2.22-3.79Z"/>
        <path class="st2" d="M498.95,421.7c3.77-.59,5.95,2.8,2.22,3.79-4.56,1.22-6.59-3.11-2.22-3.79Z"/>
      </g>
    </g>
  </g>
  <line class="st3" x1="261.62" y1="583.33" x2="560.44" y2="332.52"/>
  <path class="st4" d="M543.85,321.17l-115.45-56.45c-14.46-7.07-31.3-7.07-45.76,0l-115.45,56.45c-14.46,7.07-24.96,20.44-28.53,36.32l-28.51,126.84c-3.57,15.88.18,32.56,10.18,45.3l79.89,101.71c10.01,12.74,25.18,20.16,41.23,20.16h128.14c16.05,0,31.22-7.42,41.23-20.16l79.89-101.71c10.01-12.74,13.75-29.41,10.18-45.3l-28.51-126.84c-3.57-15.88-14.07-29.25-28.53-36.32h0ZM447.12,225.26c-26.29-12.85-56.91-12.85-83.2,0l-115.45,56.45c-26.29,12.85-45.38,37.16-51.88,66.04l-28.51,126.84c-6.49,28.88.32,59.19,18.51,82.36l79.89,101.71c18.19,23.16,45.78,36.65,74.96,36.65h128.14c29.18,0,56.77-13.49,74.96-36.65l79.89-101.71c18.19-23.16,25.01-53.47,18.52-82.36l-28.51-126.84c-6.49-28.88-25.59-53.19-51.88-66.04l-115.45-56.45h0Z"/>
  <g class="st1">
    <g class="st1">
      <text class="st0" transform="translate(118.54 831.67)"><tspan x="0" y="0">IMAGE NOT PRESENT</tspan></text>
    </g>
  </g>
</svg>