<?xml version="1.0" encoding="UTF-8"?>
<svg id="_Слой_1" xmlns="http://www.w3.org/2000/svg" version="1.1" viewBox="0 0 1400 1000">
  <!-- Generator: Adobe Illustrator 29.4.0, SVG Export Plug-In . SVG Version: 2.1.0 Build 152)  -->
  <defs>
    <style>
      .st0 {
        fill: #fff;
      }

      .st1 {
        fill: #382975;
      }

      .st2 {
        fill: none;
        stroke: #382975;
        stroke-miterlimit: 10;
        stroke-width: 37px;
      }

      .st3 {
        isolation: isolate;
      }

      .st4 {
        fill: #322b73;
        fill-rule: evenodd;
      }
    </style>
  </defs>
  <g>
    <g>
      <g>
        <path d="M619.09,538.18c-.17,3.02,5.08,8.67,2.84,11.08s-5.14-2.23-6.12-3.88c-2.35-3.96-3.76-9.92-2.54-14.43.56-2.08,1.84-4.68,4.48-3.53,2.39,1.04.86,4.73,1.02,6.68.59.05,1.1-.3,1.69-.28,3.86.12,8.84,1.51,12.92,1.85,25.62,2.12,56.97-1.3,82.59-4.75,17.25-2.33,46.51-6.36,59.91-17.7,3.88-3.28,5.91-6.78,8.98-10.5,1.03-1.25,1.75-2.12,3.51-1.36s1.26,2.27.59,3.57c-12.34,23.84-54.75,28.38-78.63,31.34-25.51,3.16-56.17,6.3-81.62,3.46-3.21-.36-6.44-1.01-9.62-1.53v-.02h0Z"/>
        <path d="M836.75,464.09c2.04-.46,3.57,1.4,2.67,3.31-18.36,23.71-30.11,46.11-33.65,76.32-.56,4.79-.45,10.74-1.37,15.28-.67,3.32-4.63,2.68-4.61-.52.03-6.15,1.33-15.12,2.22-21.36,3.51-24.69,12.49-42.06,26.41-62.2,1.99-2.87,4.82-7.5,7.03-9.94.39-.43.71-.76,1.31-.9h-.01,0Z"/>
      </g>
      <g>
        <path d="M596.69,377.69l58.7-.07c2.86.33,2.72,3.2,0,3.47h-58.14c-2.37-.17-2.94-2.64-.55-3.4h-.01Z"/>
        <path d="M665.31,409.01c-.77-.54.23-3.62.28-4.53.18-3.54-.02-5.9-1.11-9.25-.64-1.99-3.48-7.31-3.23-8.89.04-.25.58-1.47.78-1.52,4.07.09,5.92,3.5,7.26,6.85,1.65,4.15,2.06,6.73.92,11.15-.34,1.34-2.95,7.56-4.9,6.19h0Z"/>
        <g>
          <path d="M594.42,390.5c-2.16.14-4.62.45-6.54,1.63-6.67,5.2-12.65,11.3-19.23,16.59-.87.7-3.24,2.66-4.02.88-.66-1.5.08-1.99,1.04-2.92,5.1-4.93,13.07-11.93,18.71-16.17s11.44-3.05,18.21-3.46c11.91,1.13,24.91-.4,36.78.61,2.64.23,12.44,3.38,14.82,4.66,1.84.99,1.25,3.44-.92,3.15-1.53-.2-10.82-4.13-11.24-3.71,1.74,4.33,4.41,8.21,6.12,12.57.31.78.96,2.27,1.09,3,.09.52.21.83-.45.77-1.24-.12-3.01-3.02-3.75-4.11-2.75-4.06-5.01-8.43-7.4-12.71l-8.17-.47c-.28.24,1.69,2.49,1.94,2.92,3.91,6.69,3.05,13.58-1.95,19.38,4.55-.27,9.12-.19,13.68-.3,3.27-.08,6.73-.68,10.05-.33,1.51.16,2.31,1.25,1.43,2.62-.32.49-3.7.8-4.57.85-8.98.53-18.35.37-27.36.6-10.62.28-27.61,2.44-37.3-1.32-1.61-.63-11.22-5.8-11.69-6.84-.63-1.39.04-2.53,1.57-2.53,1.16,0,5.7,3.36,7.17,4.16,2.41,1.3,7.79,3.72,10.42,3.72h6.44c-6.66-6.69-6.63-16.54,0-23.25-1.61.08-3.26-.1-4.87,0h-.01ZM621.83,393.72c-5.09.83-3.36,6.94,2.3,5.75,4.77-1,3.02-6.62-2.3-5.75Z"/>
          <path class="st0" d="M621.83,393.72c5.32-.86,7.07,4.75,2.3,5.75-5.66,1.19-7.39-4.93-2.3-5.75Z"/>
        </g>
      </g>
      <g>
        <g>
          <path d="M586.97,347.86c14.75-1.01,33.86,3.02,48.93,4.62,11.44,1.22,23.93,1.49,35.16,3.18,5.34.8,8.29,6.73,4.29,10.82-2.74,2.8-5.05,1.46-8.32,1.39-11.65-.26-23.6-.64-35.2-1.88-15.51-1.65-30.47-7.1-46.04-3.3-12.45,3.04-24.53,10.45-35.8,16.35-1.95.6-3.04-.4-2.36-2.37,10.88-13.52,20.39-27.52,39.36-28.82h-.02,0Z"/>
          <path d="M562.84,352.8l-12.25,11.47c-2.03,1.49-3.83,3.33-5.83,4.86-1.17.9-3.69,3.55-5.1,2.13-.39-.63-.55-1.42-.23-2.12.5-1.1,6.53-4.47,7.99-5.53,3.06-2.24,11.2-10.37,14.17-10.99.51-.11.79.14,1.26.18h-.01Z"/>
        </g>
        <g>
          <path d="M832.01,358.57c6.31,5.48,11.27,12.67,16.61,19.05.7,2.13-.6,3.04-2.58,2.26-3.15-1.23-7.52-4.25-10.76-5.89-8.99-4.55-20.02-10.07-30.06-11.42-13.01-1.75-27.94,2.96-41.12,4.35-11.56,1.22-23.29,1.59-34.89,1.88-3.32.08-5.55,1.44-8.28-1.44-3.98-4.2-1.05-9.98,4.24-10.77,12.23-1.84,25.84-2.16,38.3-3.49,10.06-1.07,20.11-2.8,30.17-3.77,15.47-1.49,26.25-1.31,38.37,9.23h0Z"/>
          <path d="M856.56,372.2c-1.06,1.07-2.64-.23-3.53-.87-4.22-3.06-7.68-6.74-11.47-10.21-2.7-2.47-5.66-4.7-8.17-7.38.47-.06.73-.28,1.25-.18,2.7.51,10.15,7.86,12.74,9.91,1.58,1.25,8.98,5.66,9.42,6.61.26.58.2,1.68-.23,2.12h-.01Z"/>
        </g>
      </g>
      <g>
        <path d="M740.29,378.63l58.7-.07c2.86.33,2.72,3.2,0,3.47h-58.14c-2.37-.17-2.94-2.64-.55-3.4h-.01Z"/>
        <path d="M731.23,409.63c-2.49,1.35-4.63-3.68-5.15-5.61-1.3-4.78-.69-7.89,1.18-12.34.94-2.23,3.52-6.17,6.36-5.89,3.26.32-.5,6.65-1.02,8.09-1.51,4.19-2.21,6.65-1.96,11.23.05.85.87,4.09.59,4.52h0Z"/>
        <g>
          <path d="M803.38,414.7c3.39-.33,7.44-2.11,10.42-3.72,1.49-.8,6.02-4.12,7.17-4.15,1.48-.04,2.15,1.25,1.57,2.52-.65,1.43-11.12,6.66-13.11,7.32-7.75,2.57-16.3,1.3-24.27,1.16-13.06-.23-26.24-.29-39.31-.93-.72-.04-3.23-.21-3.69-.37-1.16-.4-1.43-2.84.88-3.09,3.42-.37,6.99.24,10.36.33,4.46.11,8.92.04,13.37.3-4.25-4.85-5.69-11.03-3.15-17.13l3.15-5.17-8.17.47c-2.44,4.32-4.74,8.78-7.53,12.9-.46.67-2.76,3.93-3.3,3.93l-.78-.51c1.53-5.67,4.98-10.48,7.21-15.84l-11.24,3.72c-1.88.24-2.99-2.13-.7-3.25,2.98-1.45,11.72-4.32,14.92-4.57,10.62-.83,22.87-.26,33.65-.29,7.42-.02,14.67-1.62,21.03,3.14s12.58,11.62,19.19,16.63c1.57,1.24.73,3.7-1.44,3.03-.4-.12-1.59-1.11-2.02-1.45-6.58-5.29-12.57-11.37-19.23-16.59-1.7-.98-4.67-1.63-6.54-1.63h-4.87c6.65,6.65,6.65,16.59,0,23.25,2.08-.14,4.39.2,6.44,0h-.01ZM794.03,396.23c-4.37.68-2.34,5.01,2.22,3.79,3.73-.99,1.55-4.38-2.22-3.79Z"/>
          <path class="st0" d="M794.03,396.23c3.77-.59,5.95,2.8,2.22,3.79-4.56,1.22-6.59-3.11-2.22-3.79Z"/>
        </g>
      </g>
    </g>
    <path class="st4" d="M838.93,295.7l-115.45-56.45c-14.46-7.07-31.3-7.07-45.76,0l-115.45,56.45c-14.46,7.07-24.96,20.44-28.53,36.32l-28.51,126.84c-3.57,15.88.18,32.56,10.18,45.3l79.89,101.71c10.01,12.74,25.18,20.16,41.23,20.16h128.14c16.05,0,31.22-7.42,41.23-20.16l79.89-101.71c10.01-12.74,13.75-29.41,10.18-45.3l-28.51-126.84c-3.57-15.88-14.07-29.25-28.53-36.32h0ZM742.2,199.79c-26.29-12.85-56.91-12.85-83.2,0l-115.45,56.45c-26.29,12.85-45.38,37.16-51.88,66.04l-28.51,126.84c-6.49,28.88.32,59.19,18.51,82.36l79.89,101.71c18.19,23.16,45.78,36.65,74.96,36.65h128.14c29.18,0,56.77-13.49,74.96-36.65l79.89-101.71c18.19-23.16,25.01-53.47,18.52-82.36l-28.51-126.84c-6.49-28.88-25.59-53.19-51.88-66.04l-115.45-56.45h0Z"/>
    <line class="st2" x1="551.05" y1="560.86" x2="862.11" y2="299.78"/>
  </g>
  <g class="st3">
    <g class="st3">
      <g class="st3">
        <path class="st1" d="M424.24,746.99h9.12v40.44h-9.12v-40.44Z"/>
        <path class="st1" d="M476.14,787.43l-.66-15.48c-.24-6.48-.36-12.02-.36-16.62h-.12c-1.4,5.4-2.92,10.62-4.56,15.66l-4.92,15.78h-7.14l-4.32-15.6c-1.36-4.88-2.58-10.16-3.66-15.84h-.12c-.2,6.24-.42,11.82-.66,16.74l-.78,15.36h-8.46l2.58-40.44h12.18l3.96,13.5c1.36,4.88,2.5,9.7,3.42,14.46h.24c1.24-5.4,2.52-10.24,3.84-14.52l4.26-13.44h12l2.16,40.44h-8.88Z"/>
        <path class="st1" d="M512.86,777.05h-11.58l-2.88,10.38h-9.42l12.3-40.44h12l12.6,40.44h-9.9l-3.12-10.38ZM502.6,770.21h8.94l-2.52-8.58c-.36-1.2-1.04-3.8-2.04-7.8h-.12c-.12.52-.4,1.73-.84,3.63-.44,1.9-.78,3.29-1.02,4.17l-2.4,8.58Z"/>
        <path class="st1" d="M563.5,764.27v21.3c-4.48,1.52-8.98,2.28-13.5,2.28-7.16,0-12.64-1.8-16.44-5.4-3.8-3.68-5.7-8.6-5.7-14.76.04-6.56,2.2-11.72,6.48-15.48,4.28-3.76,9.82-5.64,16.62-5.64,4.68,0,8.42.64,11.22,1.92l-1.92,7.38c-2.52-1.16-5.64-1.74-9.36-1.74-4,0-7.24,1.12-9.72,3.36-2.48,2.24-3.72,5.48-3.72,9.72s1.17,7.36,3.51,9.72c2.34,2.36,5.43,3.54,9.27,3.54,2.08,0,3.56-.18,4.44-.54v-8.52h-6.24v-7.14h15.06Z"/>
        <path class="st1" d="M594.7,762.89v7.44h-14.88v9.6h16.62v7.5h-25.74v-40.44h24.9v7.5h-15.78v8.4h14.88Z"/>
        <path class="st1" d="M623.2,787.43h-8.4v-40.44h10.68l8.4,14.82c2.28,4.04,4.48,8.66,6.6,13.86h.12c-.48-4.76-.72-10.4-.72-16.92v-11.76h8.4v40.44h-9.6l-8.64-15.6c-3.04-5.48-5.38-10.24-7.02-14.28h-.24c.28,5.04.42,10.94.42,17.7v12.18Z"/>
        <path class="st1" d="M674.02,746.27c6,0,10.7,1.95,14.1,5.85,3.4,3.9,5.1,8.79,5.1,14.67,0,6.6-1.81,11.8-5.43,15.6-3.62,3.8-8.43,5.7-14.43,5.7s-10.47-1.95-13.89-5.85c-3.42-3.9-5.13-8.83-5.13-14.79s1.81-11.18,5.43-15.18c3.62-4,8.37-6,14.25-6ZM680.98,757.43c-1.72-2.6-4.1-3.9-7.14-3.9s-5.44,1.28-7.2,3.84c-1.76,2.56-2.64,5.86-2.64,9.9s.88,7.31,2.64,9.81c1.76,2.5,4.16,3.75,7.2,3.75s5.37-1.28,7.11-3.84c1.74-2.56,2.61-5.86,2.61-9.9s-.86-7.06-2.58-9.66Z"/>
        <path class="st1" d="M705.4,787.43v-32.76h-10.92v-7.68h31.08v7.68h-11.04v32.76h-9.12Z"/>
        <path class="st1" d="M742.54,787.43v-39.9c3.28-.56,7.4-.84,12.36-.84,5.52,0,9.64,1.08,12.36,3.24,2.88,2.24,4.32,5.36,4.32,9.36s-1.24,7.36-3.72,9.6c-3.08,2.84-7.46,4.26-13.14,4.26-1.32,0-2.36-.08-3.12-.24v14.52h-9.06ZM751.6,753.95v11.94c.68.16,1.7.24,3.06.24,2.44,0,4.36-.58,5.76-1.74,1.4-1.16,2.1-2.76,2.1-4.8,0-1.88-.63-3.34-1.89-4.38-1.26-1.04-3.03-1.56-5.31-1.56-1.76,0-3,.1-3.72.3Z"/>
        <path class="st1" d="M777.4,787.43v-39.9c3.44-.56,7.5-.84,12.18-.84,6.04,0,10.4,1.06,13.08,3.18,2.52,1.96,3.78,4.8,3.78,8.52,0,2.4-.71,4.48-2.13,6.24-1.42,1.76-3.09,2.98-5.01,3.66v.18c2.52,1,4.32,3.5,5.4,7.5.24.88.62,2.34,1.14,4.38.52,2.04.94,3.61,1.26,4.71.32,1.1.6,1.89.84,2.37h-9.36c-.76-1.48-1.68-4.62-2.76-9.42-.56-2.48-1.32-4.17-2.28-5.07-.96-.9-2.42-1.37-4.38-1.41h-2.7v15.9h-9.06ZM786.46,753.83v11.1h3.6c2.28,0,4.06-.52,5.34-1.56s1.92-2.46,1.92-4.26-.59-3.18-1.77-4.14c-1.18-.96-2.83-1.44-4.95-1.44s-3.42.1-4.14.3Z"/>
        <path class="st1" d="M837.04,762.89v7.44h-14.88v9.6h16.62v7.5h-25.74v-40.44h24.9v7.5h-15.78v8.4h14.88Z"/>
        <path class="st1" d="M843.46,785.51l1.86-7.5c3.2,1.68,6.58,2.52,10.14,2.52,2.08,0,3.67-.39,4.77-1.17,1.1-.78,1.65-1.85,1.65-3.21,0-1.24-.51-2.28-1.53-3.12-1.02-.84-2.77-1.68-5.25-2.52-7.44-2.64-11.16-6.64-11.16-12,0-3.52,1.39-6.42,4.17-8.7s6.49-3.42,11.13-3.42c4,0,7.44.68,10.32,2.04l-2.04,7.32c-2.56-1.28-5.36-1.92-8.4-1.92-1.88,0-3.33.38-4.35,1.14-1.02.76-1.53,1.68-1.53,2.76,0,1.2.54,2.18,1.62,2.94,1.08.76,3.04,1.68,5.88,2.76,3.6,1.32,6.24,2.95,7.92,4.89,1.68,1.94,2.52,4.33,2.52,7.17,0,3.6-1.39,6.59-4.17,8.97-2.78,2.38-6.81,3.57-12.09,3.57-2.2,0-4.35-.25-6.45-.75-2.1-.5-3.77-1.09-5.01-1.77Z"/>
        <path class="st1" d="M901.48,762.89v7.44h-14.88v9.6h16.62v7.5h-25.74v-40.44h24.9v7.5h-15.78v8.4h14.88Z"/>
        <path class="st1" d="M917.86,787.43h-8.4v-40.44h10.68l8.4,14.82c2.28,4.04,4.48,8.66,6.6,13.86h.12c-.48-4.76-.72-10.4-.72-16.92v-11.76h8.4v40.44h-9.6l-8.64-15.6c-3.04-5.48-5.38-10.24-7.02-14.28h-.24c.28,5.04.42,10.94.42,17.7v12.18Z"/>
        <path class="st1" d="M958.72,787.43v-32.76h-10.92v-7.68h31.08v7.68h-11.04v32.76h-9.12Z"/>
        <path class="st1" d="M236.26,818.99h8.4v12c0,6.44-.16,12.54-.48,18.3h.18c2.24-4.96,4.66-9.76,7.26-14.4l8.7-15.9h9.36v40.44h-8.4v-11.94c0-7.04.22-12.72.66-17.04h-.18c-1.8,4.6-4.1,9.4-6.9,14.4l-8.22,14.58h-10.38v-40.44Z"/>
        <path class="st1" d="M278.32,828.05l-2.1-6.54c3.68-2.16,7.88-3.24,12.6-3.24,4.32,0,7.74.97,10.26,2.91,2.52,1.94,3.78,4.43,3.78,7.47,0,2.48-.74,4.54-2.22,6.18-1.48,1.64-3.44,2.76-5.88,3.36v.12c2.64.36,4.87,1.4,6.69,3.12,1.82,1.72,2.73,3.88,2.73,6.48,0,2.16-.5,4.06-1.5,5.7-1,1.64-2.33,2.91-3.99,3.81-1.66.9-3.43,1.57-5.31,2.01-1.88.44-3.82.66-5.82.66-4.8,0-8.84-.94-12.12-2.82l1.92-7.08c1.12.6,2.6,1.16,4.44,1.68,1.84.52,3.62.78,5.34.78,2.32,0,4.14-.47,5.46-1.41,1.32-.94,1.98-2.25,1.98-3.93,0-3.56-2.84-5.34-8.52-5.34h-3.84v-6.78h3.84c2.12,0,3.86-.45,5.22-1.35,1.36-.9,2.04-2.15,2.04-3.75,0-1.36-.54-2.44-1.62-3.24-1.08-.8-2.58-1.2-4.5-1.2-2.72,0-5.68.8-8.88,2.4Z"/>
        <path class="st1" d="M327.88,818.27c6,0,10.7,1.95,14.1,5.85,3.4,3.9,5.1,8.79,5.1,14.67,0,6.6-1.81,11.8-5.43,15.6-3.62,3.8-8.43,5.7-14.43,5.7s-10.47-1.95-13.89-5.85c-3.42-3.9-5.13-8.83-5.13-14.79s1.81-11.18,5.43-15.18c3.62-4,8.37-6,14.25-6ZM334.84,829.43c-1.72-2.6-4.1-3.9-7.14-3.9s-5.44,1.28-7.2,3.84c-1.76,2.56-2.64,5.86-2.64,9.9s.88,7.31,2.64,9.81c1.76,2.5,4.16,3.75,7.2,3.75s5.37-1.28,7.11-3.84c1.74-2.56,2.61-5.86,2.61-9.9s-.86-7.06-2.58-9.66Z"/>
        <path class="st1" d="M353.14,818.99h26.82v7.44h-17.76v6.96c1.52-.2,3.16-.3,4.92-.3,4.64,0,8.44,1.1,11.4,3.3,3.12,2.24,4.68,5.48,4.68,9.72,0,3.72-1.28,6.76-3.84,9.12-3.52,3.08-9,4.62-16.44,4.62-3.8,0-7.06-.2-9.78-.6v-40.26ZM362.2,840.11v12.66c.92.16,2.08.24,3.48.24,2.4,0,4.38-.68,5.94-2.04,1.32-1.24,1.98-2.82,1.98-4.74s-.72-3.44-2.16-4.56c-1.56-1.2-3.58-1.8-6.06-1.8-.68,0-1.74.08-3.18.24Z"/>
        <path class="st1" d="M389.26,859.43v-39.9c3.28-.56,7.4-.84,12.36-.84,5.52,0,9.64,1.08,12.36,3.24,2.88,2.24,4.32,5.36,4.32,9.36s-1.24,7.36-3.72,9.6c-3.08,2.84-7.46,4.26-13.14,4.26-1.32,0-2.36-.08-3.12-.24v14.52h-9.06ZM398.32,825.95v11.94c.68.16,1.7.24,3.06.24,2.44,0,4.36-.58,5.76-1.74,1.4-1.16,2.1-2.76,2.1-4.8,0-1.88-.63-3.34-1.89-4.38-1.26-1.04-3.03-1.56-5.31-1.56-1.76,0-3,.1-3.72.3Z"/>
        <path class="st1" d="M441.46,849.05h-11.58l-2.88,10.38h-9.42l12.3-40.44h12l12.6,40.44h-9.9l-3.12-10.38ZM431.2,842.21h8.94l-2.52-8.58c-.36-1.2-1.04-3.8-2.04-7.8h-.12c-.12.52-.4,1.73-.84,3.63-.44,1.9-.78,3.29-1.02,4.17l-2.4,8.58Z"/>
        <path class="st1" d="M456.64,818.99h10.62l10.08,16.8h.78v-16.8h8.82v16.8h.78l10.08-16.8h10.62l-13.8,18.06c2.56.28,4.61,1.27,6.15,2.97,1.54,1.7,2.77,3.99,3.69,6.87.16.44.72,2.25,1.68,5.43.96,3.18,1.8,5.55,2.52,7.11h-9.24c-.6-1.28-1.58-4.26-2.94-8.94-.72-2.52-1.69-4.48-2.91-5.88-1.22-1.4-2.97-2.1-5.25-2.1h-1.38v16.92h-8.82v-16.92h-1.44c-2.24,0-3.97.7-5.19,2.1-1.22,1.4-2.21,3.36-2.97,5.88-1.44,4.92-2.4,7.9-2.88,8.94h-9.18c.52-1.2,1.01-2.47,1.47-3.81.46-1.34.97-2.9,1.53-4.68.56-1.78.96-3.05,1.2-3.81.96-2.84,2.19-5.11,3.69-6.81,1.5-1.7,3.51-2.79,6.03-3.27l-13.74-18.06Z"/>
        <path class="st1" d="M536.8,834.89v7.44h-14.88v9.6h16.62v7.5h-25.74v-40.44h24.9v7.5h-15.78v8.4h14.88Z"/>
        <path class="st1" d="M544.84,818.99h9.12v15.54h15.06v-15.54h9.12v40.44h-9.12v-16.92h-15.06v16.92h-9.12v-40.44Z"/>
        <path class="st1" d="M586.12,818.99h8.4v12c0,6.44-.16,12.54-.48,18.3h.18c2.24-4.96,4.66-9.76,7.26-14.4l8.7-15.9h9.36v40.44h-8.4v-11.94c0-7.04.22-12.72.66-17.04h-.18c-1.8,4.6-4.1,9.4-6.9,14.4l-8.22,14.58h-10.38v-40.44Z"/>
        <path class="st1" d="M651.58,834.89v7.44h-14.88v9.6h16.62v7.5h-25.74v-40.44h24.9v7.5h-15.78v8.4h14.88Z"/>
        <path class="st1" d="M671.74,818.99h9.12v15.54h15.06v-15.54h9.12v40.44h-9.12v-16.92h-15.06v16.92h-9.12v-40.44Z"/>
        <path class="st1" d="M737.08,834.89v7.44h-14.88v9.6h16.62v7.5h-25.74v-40.44h24.9v7.5h-15.78v8.4h14.88Z"/>
        <path class="st1" d="M753.4,818.93h10.32l5.88,14.58c.4,1.04.91,2.42,1.53,4.14.62,1.72,1.07,2.92,1.35,3.6h.18c.12-.44.42-1.54.9-3.3.48-1.76.9-3.3,1.26-4.62l4.38-14.4h9.66l-7.62,19.98c-3.2,8.16-5.86,13.52-7.98,16.08-2.84,3.56-6.42,5.34-10.74,5.34-1.76,0-3.26-.22-4.5-.66l.66-7.32c.88.2,1.88.3,3,.3,1.32,0,2.46-.37,3.42-1.11s1.66-1.61,2.1-2.61c.24-.52.18-1.16-.18-1.92l-13.62-28.08Z"/>
        <path class="st1" d="M819.7,851.15l1.32,7.2c-2.4,1.16-5.84,1.74-10.32,1.74-6.76,0-11.98-1.88-15.66-5.64-3.68-3.76-5.52-8.64-5.52-14.64,0-6.68,2.09-11.92,6.27-15.72,4.18-3.8,9.45-5.7,15.81-5.7,4.48,0,7.8.6,9.96,1.8l-1.92,7.2c-2.32-1-4.88-1.5-7.68-1.5-3.8,0-6.89,1.15-9.27,3.45-2.38,2.3-3.57,5.61-3.57,9.93,0,4.08,1.14,7.3,3.42,9.66,2.28,2.36,5.44,3.54,9.48,3.54,3.04,0,5.6-.44,7.68-1.32Z"/>
        <path class="st1" d="M836.08,859.43v-32.76h-10.92v-7.68h31.08v7.68h-11.04v32.76h-9.12Z"/>
        <path class="st1" d="M877.6,849.05h-11.58l-2.88,10.38h-9.42l12.3-40.44h12l12.6,40.44h-9.9l-3.12-10.38ZM867.34,842.21h8.94l-2.52-8.58c-.36-1.2-1.04-3.8-2.04-7.8h-.12c-.12.52-.4,1.73-.84,3.63-.44,1.9-.78,3.29-1.02,4.17l-2.4,8.58Z"/>
        <path class="st1" d="M896.02,818.99h9.12v15.54h15.06v-15.54h9.12v40.44h-9.12v-16.92h-15.06v16.92h-9.12v-40.44Z"/>
        <path class="st1" d="M955.12,818.27c6,0,10.7,1.95,14.1,5.85,3.4,3.9,5.1,8.79,5.1,14.67,0,6.6-1.81,11.8-5.43,15.6-3.62,3.8-8.43,5.7-14.43,5.7s-10.47-1.95-13.89-5.85c-3.42-3.9-5.13-8.83-5.13-14.79s1.81-11.18,5.43-15.18c3.62-4,8.37-6,14.25-6ZM962.08,829.43c-1.72-2.6-4.1-3.9-7.14-3.9s-5.44,1.28-7.2,3.84c-1.76,2.56-2.64,5.86-2.64,9.9s.88,7.31,2.64,9.81c1.76,2.5,4.16,3.75,7.2,3.75s5.37-1.28,7.11-3.84c1.74-2.56,2.61-5.86,2.61-9.9s-.86-7.06-2.58-9.66Z"/>
        <path class="st1" d="M980.32,859.25v-39.72c3.2-.56,7.14-.84,11.82-.84,5.36,0,9.36.76,12,2.28,3.2,1.72,4.8,4.38,4.8,7.98,0,1.84-.56,3.52-1.68,5.04-1.12,1.52-2.78,2.7-4.98,3.54v.12c2.4.64,4.34,1.82,5.82,3.54,1.48,1.72,2.22,3.84,2.22,6.36,0,3.48-1.4,6.36-4.2,8.64-3.08,2.44-8.38,3.66-15.9,3.66-3.88,0-7.18-.2-9.9-.6ZM989.38,825.59v9.42h3c2.4,0,4.23-.45,5.49-1.35,1.26-.9,1.89-2.11,1.89-3.63,0-3.12-2.16-4.68-6.48-4.68-1.64,0-2.94.08-3.9.24ZM989.38,841.55v11.4c.6.08,1.78.12,3.54.12,2.28,0,4.15-.48,5.61-1.44s2.19-2.44,2.19-4.44-.76-3.34-2.28-4.26c-1.52-.92-3.5-1.38-5.94-1.38h-3.12Z"/>
        <path class="st1" d="M1020.04,818.99h27.24v40.44h-9.12v-32.94h-9.18v9.6c0,5.76-.53,10.45-1.59,14.07-1.06,3.62-3.01,6.27-5.85,7.95-2.36,1.32-5.04,1.98-8.04,1.98l-1.14-7.38c1.96-.24,3.5-.96,4.62-2.16,2.04-2.08,3.06-6.7,3.06-13.86v-17.7Z"/>
        <path class="st1" d="M1079.32,834.89v7.44h-14.88v9.6h16.62v7.5h-25.74v-40.44h24.9v7.5h-15.78v8.4h14.88Z"/>
        <path class="st1" d="M1087.36,818.99h9.12v15.54h15.06v-15.54h9.12v40.44h-9.12v-16.92h-15.06v16.92h-9.12v-40.44Z"/>
        <path class="st1" d="M1146.46,818.27c6,0,10.7,1.95,14.1,5.85,3.4,3.9,5.1,8.79,5.1,14.67,0,6.6-1.81,11.8-5.43,15.6-3.62,3.8-8.43,5.7-14.43,5.7s-10.47-1.95-13.89-5.85c-3.42-3.9-5.13-8.83-5.13-14.79s1.81-11.18,5.43-15.18c3.62-4,8.37-6,14.25-6ZM1153.42,829.43c-1.72-2.6-4.1-3.9-7.14-3.9s-5.44,1.28-7.2,3.84c-1.76,2.56-2.64,5.86-2.64,9.9s.88,7.31,2.64,9.81c1.76,2.5,4.16,3.75,7.2,3.75s5.37-1.28,7.11-3.84c1.74-2.56,2.61-5.86,2.61-9.9s-.86-7.06-2.58-9.66Z"/>
      </g>
    </g>
  </g>
</svg>