<?xml version="1.0" encoding="UTF-8"?>
<svg id="_Слой_1" data-name="Слой_1" xmlns="http://www.w3.org/2000/svg" version="1.1" viewBox="0 0 595.28 841.89">
  <!-- Generator: Adobe Illustrator 29.4.0, SVG Export Plug-In . SVG Version: 2.1.0 Build 152)  -->
  <defs>
    <style>
      .st0 {
        font-family: MyriadPro-Bold, 'Myriad Pro';
        font-size: 48px;
        font-weight: 700;
      }

      .st0, .st1 {
        fill: #231300;
      }

      .st2 {
        fill: #fff;
        fill-rule: evenodd;
      }

      .st3 {
        fill: none;
      }
    </style>
  </defs>
  <text class="st0" transform="translate(139.73 163.93)"><tspan x="0" y="0">Студенческий </tspan><tspan x="45.72" y="57.6">чат ЦСО-1</tspan></text>
  <line class="st3" y1="841.89" x2="592.85" y2="3.3"/>
  <g>
    <g>
      <path class="st1" d="M196.18,280.07c3.5,0,6.34,2.84,6.34,6.34s-2.84,6.34-6.34,6.34-6.34-2.84-6.34-6.34,2.84-6.34,6.34-6.34Z"/>
      <path class="st1" d="M234.23,280.07h6.34v12.68h-6.34c-3.5,0-6.34-2.84-6.34-6.34s2.84-6.34,6.34-6.34Z"/>
      <path class="st1" d="M246.91,292.75h-6.34v-12.68h6.34c3.5,0,6.34,2.84,6.34,6.34s-2.84,6.34-6.34,6.34Z"/>
      <path class="st1" d="M284.96,280.07c3.5,0,6.34,2.84,6.34,6.34s-2.84,6.34-6.34,6.34-6.34-2.84-6.34-6.34,2.84-6.34,6.34-6.34Z"/>
      <path class="st1" d="M323,280.07h6.34v12.68h-6.34c-3.5,0-6.34-2.84-6.34-6.34s2.84-6.34,6.34-6.34Z"/>
      <rect class="st1" x="329.34" y="280.07" width="12.68" height="12.68"/>
      <rect class="st1" x="342.02" y="280.07" width="12.68" height="12.68"/>
      <rect class="st1" x="354.71" y="280.07" width="12.68" height="12.68"/>
      <path class="st1" d="M373.73,292.75h-6.34v-12.68h6.34c3.5,0,6.34,2.84,6.34,6.34s-2.84,6.34-6.34,6.34Z"/>
      <path class="st1" d="M405.43,286.41v6.34s-4.32,0-6.34,0c-1.58,0-6.34,0-6.34,0v-6.34c0-3.5,2.84-6.34,6.34-6.34s6.34,2.84,6.34,6.34Z"/>
      <path class="st1" d="M208.87,292.75c3.5,0,6.34,2.84,6.34,6.34s-2.84,6.34-6.34,6.34-6.34-2.84-6.34-6.34,2.84-6.34,6.34-6.34Z"/>
      <path class="st1" d="M316.66,299.09v6.34s-4.32,0-6.34,0c-1.58,0-6.34,0-6.34,0v-6.34c0-3.5,2.84-6.34,6.34-6.34s6.34,2.84,6.34,6.34Z"/>
      <rect class="st1" x="354.71" y="292.75" width="12.68" height="12.68"/>
      <rect class="st1" x="392.75" y="292.75" width="12.68" height="12.68"/>
      <path class="st1" d="M196.18,305.43c3.5,0,6.34,2.84,6.34,6.34s-2.84,6.34-6.34,6.34-6.34-2.84-6.34-6.34,2.84-6.34,6.34-6.34Z"/>
      <path class="st1" d="M253.25,318.11h12.68v-12.68c-7,0-12.68,5.68-12.68,12.68Z"/>
      <rect class="st1" x="265.93" y="305.43" width="12.68" height="12.68"/>
      <path class="st1" d="M284.96,318.11h-6.34v-12.68h6.34c3.5,0,6.34,2.84,6.34,6.34s-2.84,6.34-6.34,6.34Z"/>
      <rect class="st1" x="303.98" y="305.43" width="12.68" height="12.68"/>
      <path class="st1" d="M348.37,305.43h6.34v12.68h-6.34c-3.5,0-6.34-2.84-6.34-6.34s2.84-6.34,6.34-6.34Z"/>
      <path class="st1" d="M367.39,305.43h-12.68v12.68c7,0,12.68-5.68,12.68-12.68Z"/>
      <path class="st1" d="M380.07,318.11h12.68v-12.68c-7,0-12.68,5.68-12.68,12.68Z"/>
      <path class="st1" d="M405.43,305.43h-12.68v12.68c7,0,12.68-5.68,12.68-12.68Z"/>
      <path class="st1" d="M240.57,330.8h12.68v-12.68c-7,0-12.68,5.68-12.68,12.68Z"/>
      <rect class="st1" x="253.25" y="318.11" width="12.68" height="12.68"/>
      <rect class="st1" x="265.93" y="318.11" width="12.68" height="12.68"/>
      <path class="st1" d="M291.3,330.8h12.68v-12.68c-7,0-12.68,5.68-12.68,12.68Z"/>
      <rect class="st1" x="303.98" y="318.11" width="12.68" height="12.68"/>
      <path class="st1" d="M380.07,324.45v-6.34h12.68v6.34c0,3.5-2.84,6.34-6.34,6.34s-6.34-2.84-6.34-6.34Z"/>
      <path class="st1" d="M196.18,330.8h6.34v12.68h-6.34c-3.5,0-6.34-2.84-6.34-6.34s2.84-6.34,6.34-6.34Z"/>
      <rect class="st1" x="202.52" y="330.8" width="12.68" height="12.68"/>
      <path class="st1" d="M215.21,330.8v12.68h12.68c0-7-5.68-12.68-12.68-12.68Z"/>
      <path class="st1" d="M240.57,337.14v-6.34h12.68v6.34c0,3.5-2.84,6.34-6.34,6.34s-6.34-2.84-6.34-6.34Z"/>
      <path class="st1" d="M265.93,337.14v-6.34h12.68v6.34c0,3.5-2.84,6.34-6.34,6.34s-6.34-2.84-6.34-6.34Z"/>
      <path class="st1" d="M303.98,343.48v-12.68h-12.68c0,7,5.68,12.68,12.68,12.68Z"/>
      <rect class="st1" x="303.98" y="330.8" width="12.68" height="12.68"/>
      <path class="st1" d="M316.66,330.8v12.68h12.68c0-7-5.68-12.68-12.68-12.68Z"/>
      <path class="st1" d="M367.39,337.14v6.34s-4.32,0-6.34,0c-1.58,0-6.34,0-6.34,0v-6.34c0-3.5,2.84-6.34,6.34-6.34s6.34,2.84,6.34,6.34Z"/>
      <path class="st1" d="M399.09,330.8c3.5,0,6.34,2.84,6.34,6.34s-2.84,6.34-6.34,6.34-6.34-2.84-6.34-6.34,2.84-6.34,6.34-6.34Z"/>
      <rect class="st1" x="215.21" y="343.48" width="12.68" height="12.68"/>
      <path class="st1" d="M234.23,356.16h-6.34v-12.68h6.34c3.5,0,6.34,2.84,6.34,6.34s-2.84,6.34-6.34,6.34Z"/>
      <rect class="st1" x="316.66" y="343.48" width="12.68" height="12.68"/>
      <path class="st1" d="M342.02,356.16h12.68v-12.68c-7,0-12.68,5.68-12.68,12.68Z"/>
      <rect class="st1" x="354.71" y="343.48" width="12.68" height="12.68"/>
      <path class="st1" d="M367.39,343.48v12.68h12.68c0-7-5.68-12.68-12.68-12.68Z"/>
      <path class="st1" d="M202.52,362.5v6.34s-4.32,0-6.34,0c-1.58,0-6.34,0-6.34,0v-6.34c0-3.5,2.84-6.34,6.34-6.34s6.34,2.84,6.34,6.34Z"/>
      <rect class="st1" x="215.21" y="356.16" width="12.68" height="12.68"/>
      <path class="st1" d="M246.91,356.16c3.5,0,6.34,2.84,6.34,6.34s-2.84,6.34-6.34,6.34-6.34-2.84-6.34-6.34,2.84-6.34,6.34-6.34Z"/>
      <path class="st1" d="M272.27,356.16c3.5,0,6.34,2.84,6.34,6.34s-2.84,6.34-6.34,6.34-6.34-2.84-6.34-6.34,2.84-6.34,6.34-6.34Z"/>
      <path class="st1" d="M303.98,362.5v6.34s-4.32,0-6.34,0c-1.58,0-6.34,0-6.34,0v-6.34c0-3.5,2.84-6.34,6.34-6.34s6.34,2.84,6.34,6.34Z"/>
      <path class="st1" d="M316.66,362.5v-6.34h12.68v6.34c0,3.5-2.84,6.34-6.34,6.34s-6.34-2.84-6.34-6.34Z"/>
      <path class="st1" d="M342.02,362.5v-6.34h12.68v6.34c0,3.5-2.84,6.34-6.34,6.34s-6.34-2.84-6.34-6.34Z"/>
      <path class="st1" d="M367.39,362.5v-6.34h12.68v6.34c0,3.5-2.84,6.34-6.34,6.34s-6.34-2.84-6.34-6.34Z"/>
      <path class="st1" d="M405.43,362.5v6.34s-4.32,0-6.34,0c-1.58,0-6.34,0-6.34,0v-6.34c0-3.5,2.84-6.34,6.34-6.34s6.34,2.84,6.34,6.34Z"/>
      <path class="st1" d="M189.84,375.18v-6.34h12.68v6.34c0,3.5-2.84,6.34-6.34,6.34s-6.34-2.84-6.34-6.34Z"/>
      <rect class="st1" x="215.21" y="368.84" width="12.68" height="12.68"/>
      <path class="st1" d="M259.59,368.84c3.5,0,6.34,2.84,6.34,6.34s-2.84,6.34-6.34,6.34-6.34-2.84-6.34-6.34,2.84-6.34,6.34-6.34Z"/>
      <rect class="st1" x="291.3" y="368.84" width="12.68" height="12.68"/>
      <path class="st1" d="M303.98,368.84v12.68h12.68c0-7-5.68-12.68-12.68-12.68Z"/>
      <path class="st1" d="M342.02,375.18v6.34s-4.32,0-6.34,0c-1.58,0-6.34,0-6.34,0v-6.34c0-3.5,2.84-6.34,6.34-6.34s6.34,2.84,6.34,6.34Z"/>
      <path class="st1" d="M392.75,375.18v-6.34h12.68v6.34c0,3.5-2.84,6.34-6.34,6.34s-6.34-2.84-6.34-6.34Z"/>
      <path class="st1" d="M151.8,394.2h12.68v-12.68c-7,0-12.68,5.68-12.68,12.68Z"/>
      <path class="st1" d="M170.82,394.2h-6.34v-12.68h6.34c3.5,0,6.34,2.84,6.34,6.34s-2.84,6.34-6.34,6.34Z"/>
      <rect class="st1" x="215.21" y="381.52" width="12.68" height="12.68"/>
      <rect class="st1" x="227.89" y="381.52" width="12.68" height="12.68"/>
      <path class="st1" d="M240.57,381.52v12.68h12.68c0-7-5.68-12.68-12.68-12.68Z"/>
      <path class="st1" d="M272.27,381.52c3.5,0,6.34,2.84,6.34,6.34s-2.84,6.34-6.34,6.34-6.34-2.84-6.34-6.34,2.84-6.34,6.34-6.34Z"/>
      <path class="st1" d="M303.98,394.2v-12.68h-12.68c0,7,5.68,12.68,12.68,12.68Z"/>
      <rect class="st1" x="303.98" y="381.52" width="12.68" height="12.68"/>
      <rect class="st1" x="316.66" y="381.52" width="12.68" height="12.68"/>
      <path class="st1" d="M342.02,381.52h-12.68v12.68c7,0,12.68-5.68,12.68-12.68Z"/>
      <path class="st1" d="M354.71,394.2h12.68v-12.68c-7,0-12.68,5.68-12.68,12.68Z"/>
      <path class="st1" d="M367.39,381.52v12.68h12.68c0-7-5.68-12.68-12.68-12.68Z"/>
      <path class="st1" d="M424.46,381.52c3.5,0,6.34,2.84,6.34,6.34s-2.84,6.34-6.34,6.34-6.34-2.84-6.34-6.34,2.84-6.34,6.34-6.34Z"/>
      <path class="st1" d="M456.16,387.86v6.34s-4.32,0-6.34,0c-1.58,0-6.34,0-6.34,0v-6.34c0-3.5,2.84-6.34,6.34-6.34s6.34,2.84,6.34,6.34Z"/>
      <path class="st1" d="M475.18,381.52c3.5,0,6.34,2.84,6.34,6.34s-2.84,6.34-6.34,6.34-6.34-2.84-6.34-6.34,2.84-6.34,6.34-6.34Z"/>
      <path class="st1" d="M500.55,381.52c3.5,0,6.34,2.84,6.34,6.34s-2.84,6.34-6.34,6.34-6.34-2.84-6.34-6.34,2.84-6.34,6.34-6.34Z"/>
      <path class="st1" d="M88.39,406.89h12.68v-12.68c-7,0-12.68,5.68-12.68,12.68Z"/>
      <rect class="st1" x="101.07" y="394.2" width="12.68" height="12.68"/>
      <path class="st1" d="M120.09,406.89h-6.34v-12.68h6.34c3.5,0,6.34,2.84,6.34,6.34s-2.84,6.34-6.34,6.34Z"/>
      <path class="st1" d="M151.8,400.55v-6.34h12.68v6.34c0,3.5-2.84,6.34-6.34,6.34s-6.34-2.84-6.34-6.34Z"/>
      <path class="st1" d="M202.52,400.55v6.34s-4.32,0-6.34,0c-1.58,0-6.34,0-6.34,0v-6.34c0-3.5,2.84-6.34,6.34-6.34s6.34,2.84,6.34,6.34Z"/>
      <rect class="st1" x="215.21" y="394.2" width="12.68" height="12.68"/>
      <rect class="st1" x="240.57" y="394.2" width="12.68" height="12.68"/>
      <rect class="st1" x="303.98" y="394.2" width="12.68" height="12.68"/>
      <path class="st1" d="M348.37,394.2h6.34v12.68h-6.34c-3.5,0-6.34-2.84-6.34-6.34s2.84-6.34,6.34-6.34Z"/>
      <rect class="st1" x="354.71" y="394.2" width="12.68" height="12.68"/>
      <rect class="st1" x="367.39" y="394.2" width="12.68" height="12.68"/>
      <path class="st1" d="M418.12,400.55v6.34s-4.32,0-6.34,0c-1.58,0-6.34,0-6.34,0v-6.34c0-3.5,2.84-6.34,6.34-6.34s6.34,2.84,6.34,6.34Z"/>
      <path class="st1" d="M430.8,406.89h12.68v-12.68c-7,0-12.68,5.68-12.68,12.68Z"/>
      <path class="st1" d="M456.16,394.2h-12.68v12.68c7,0,12.68-5.68,12.68-12.68Z"/>
      <rect class="st1" x="88.39" y="406.89" width="12.68" height="12.68"/>
      <path class="st1" d="M113.75,406.89h-12.68v12.68c7,0,12.68-5.68,12.68-12.68Z"/>
      <path class="st1" d="M170.82,406.89h6.34v12.68h-6.34c-3.5,0-6.34-2.84-6.34-6.34s2.84-6.34,6.34-6.34Z"/>
      <rect class="st1" x="177.16" y="406.89" width="12.68" height="12.68"/>
      <rect class="st1" x="189.84" y="406.89" width="12.68" height="12.68"/>
      <rect class="st1" x="202.52" y="406.89" width="12.68" height="12.68"/>
      <rect class="st1" x="215.21" y="406.89" width="12.68" height="12.68"/>
      <rect class="st1" x="227.89" y="406.89" width="12.68" height="12.68"/>
      <rect class="st1" x="240.57" y="406.89" width="12.68" height="12.68"/>
      <rect class="st1" x="253.25" y="406.89" width="12.68" height="12.68"/>
      <path class="st1" d="M272.27,419.57h-6.34v-12.68h6.34c3.5,0,6.34,2.84,6.34,6.34s-2.84,6.34-6.34,6.34Z"/>
      <path class="st1" d="M303.98,413.23v-6.34h12.68v6.34c0,3.5-2.84,6.34-6.34,6.34s-6.34-2.84-6.34-6.34Z"/>
      <path class="st1" d="M335.68,406.89c3.5,0,6.34,2.84,6.34,6.34s-2.84,6.34-6.34,6.34-6.34-2.84-6.34-6.34,2.84-6.34,6.34-6.34Z"/>
      <path class="st1" d="M367.39,413.23v-6.34h12.68v6.34c0,3.5-2.84,6.34-6.34,6.34s-6.34-2.84-6.34-6.34Z"/>
      <path class="st1" d="M399.09,406.89h6.34v12.68h-6.34c-3.5,0-6.34-2.84-6.34-6.34s2.84-6.34,6.34-6.34Z"/>
      <rect class="st1" x="405.43" y="406.89" width="12.68" height="12.68"/>
      <rect class="st1" x="430.8" y="406.89" width="12.68" height="12.68"/>
      <path class="st1" d="M462.5,406.89h6.34v12.68h-6.34c-3.5,0-6.34-2.84-6.34-6.34s2.84-6.34,6.34-6.34Z"/>
      <path class="st1" d="M468.84,406.89v12.68h12.68c0-7-5.68-12.68-12.68-12.68Z"/>
      <path class="st1" d="M88.39,425.91v-6.34h12.68v6.34c0,3.5-2.84,6.34-6.34,6.34s-6.34-2.84-6.34-6.34Z"/>
      <path class="st1" d="M158.14,419.57c3.5,0,6.34,2.84,6.34,6.34s-2.84,6.34-6.34,6.34-6.34-2.84-6.34-6.34,2.84-6.34,6.34-6.34Z"/>
      <path class="st1" d="M202.52,432.25v-12.68h-12.68c0,7,5.68,12.68,12.68,12.68Z"/>
      <rect class="st1" x="202.52" y="419.57" width="12.68" height="12.68"/>
      <path class="st1" d="M227.89,419.57h-12.68v12.68c7,0,12.68-5.68,12.68-12.68Z"/>
      <path class="st1" d="M392.75,425.91v6.34s-4.32,0-6.34,0c-1.58,0-6.34,0-6.34,0v-6.34c0-3.5,2.84-6.34,6.34-6.34s6.34,2.84,6.34,6.34Z"/>
      <rect class="st1" x="405.43" y="419.57" width="12.68" height="12.68"/>
      <path class="st1" d="M430.8,425.91v-6.34h12.68v6.34c0,3.5-2.84,6.34-6.34,6.34s-6.34-2.84-6.34-6.34Z"/>
      <path class="st1" d="M468.84,425.91v-6.34h12.68v6.34c0,3.5-2.84,6.34-6.34,6.34s-6.34-2.84-6.34-6.34Z"/>
      <path class="st1" d="M132.77,432.25c3.5,0,6.34,2.84,6.34,6.34s-2.84,6.34-6.34,6.34-6.34-2.84-6.34-6.34,2.84-6.34,6.34-6.34Z"/>
      <path class="st1" d="M170.82,432.25h6.34v12.68h-6.34c-3.5,0-6.34-2.84-6.34-6.34s2.84-6.34,6.34-6.34Z"/>
      <path class="st1" d="M177.16,432.25v12.68h12.68c0-7-5.68-12.68-12.68-12.68Z"/>
      <path class="st1" d="M392.75,444.93v-12.68h-12.68c0,7,5.68,12.68,12.68,12.68Z"/>
      <rect class="st1" x="392.75" y="432.25" width="12.68" height="12.68"/>
      <rect class="st1" x="405.43" y="432.25" width="12.68" height="12.68"/>
      <path class="st1" d="M418.12,432.25v12.68h12.68c0-7-5.68-12.68-12.68-12.68Z"/>
      <path class="st1" d="M506.89,438.59v6.34s-4.32,0-6.34,0c-1.58,0-6.34,0-6.34,0v-6.34c0-3.5,2.84-6.34,6.34-6.34s6.34,2.84,6.34,6.34Z"/>
      <path class="st1" d="M88.39,457.61h12.68v-12.68c-7,0-12.68,5.68-12.68,12.68Z"/>
      <rect class="st1" x="101.07" y="444.93" width="12.68" height="12.68"/>
      <path class="st1" d="M120.09,457.61h-6.34v-12.68h6.34c3.5,0,6.34,2.84,6.34,6.34s-2.84,6.34-6.34,6.34Z"/>
      <path class="st1" d="M189.84,457.61v-12.68h-12.68c0,7,5.68,12.68,12.68,12.68Z"/>
      <rect class="st1" x="189.84" y="444.93" width="12.68" height="12.68"/>
      <path class="st1" d="M202.52,444.93v12.68h12.68c0-7-5.68-12.68-12.68-12.68Z"/>
      <path class="st1" d="M430.8,457.61v-12.68h-12.68c0,7,5.68,12.68,12.68,12.68Z"/>
      <path class="st1" d="M437.14,457.61h-6.34v-12.68h6.34c3.5,0,6.34,2.84,6.34,6.34s-2.84,6.34-6.34,6.34Z"/>
      <path class="st1" d="M468.84,451.27v6.34s-4.32,0-6.34,0c-1.58,0-6.34,0-6.34,0v-6.34c0-3.5,2.84-6.34,6.34-6.34s6.34,2.84,6.34,6.34Z"/>
      <path class="st1" d="M494.21,451.27v-6.34h12.68v6.34c0,3.5-2.84,6.34-6.34,6.34s-6.34-2.84-6.34-6.34Z"/>
      <path class="st1" d="M88.39,463.95v-6.34h12.68v6.34c0,3.5-2.84,6.34-6.34,6.34s-6.34-2.84-6.34-6.34Z"/>
      <path class="st1" d="M170.82,457.61c3.5,0,6.34,2.84,6.34,6.34s-2.84,6.34-6.34,6.34-6.34-2.84-6.34-6.34,2.84-6.34,6.34-6.34Z"/>
      <path class="st1" d="M202.52,470.3v-12.68h-12.68c0,7,5.68,12.68,12.68,12.68Z"/>
      <rect class="st1" x="202.52" y="457.61" width="12.68" height="12.68"/>
      <path class="st1" d="M373.73,457.61c3.5,0,6.34,2.84,6.34,6.34s-2.84,6.34-6.34,6.34-6.34-2.84-6.34-6.34,2.84-6.34,6.34-6.34Z"/>
      <path class="st1" d="M411.77,457.61c3.5,0,6.34,2.84,6.34,6.34s-2.84,6.34-6.34,6.34-6.34-2.84-6.34-6.34,2.84-6.34,6.34-6.34Z"/>
      <rect class="st1" x="456.16" y="457.61" width="12.68" height="12.68"/>
      <rect class="st1" x="468.84" y="457.61" width="12.68" height="12.68"/>
      <path class="st1" d="M487.87,470.3h-6.34v-12.68h6.34c3.5,0,6.34,2.84,6.34,6.34s-2.84,6.34-6.34,6.34Z"/>
      <path class="st1" d="M107.41,470.3h6.34v12.68h-6.34c-3.5,0-6.34-2.84-6.34-6.34s2.84-6.34,6.34-6.34Z"/>
      <path class="st1" d="M113.75,470.3v12.68h12.68c0-7-5.68-12.68-12.68-12.68Z"/>
      <path class="st1" d="M158.14,470.3c3.5,0,6.34,2.84,6.34,6.34s-2.84,6.34-6.34,6.34-6.34-2.84-6.34-6.34,2.84-6.34,6.34-6.34Z"/>
      <path class="st1" d="M189.84,476.64v6.34s-4.32,0-6.34,0c-1.58,0-6.34,0-6.34,0v-6.34c0-3.5,2.84-6.34,6.34-6.34s6.34,2.84,6.34,6.34Z"/>
      <path class="st1" d="M202.52,476.64v-6.34h12.68v6.34c0,3.5-2.84,6.34-6.34,6.34s-6.34-2.84-6.34-6.34Z"/>
      <path class="st1" d="M380.07,482.98h12.68v-12.68c-7,0-12.68,5.68-12.68,12.68Z"/>
      <path class="st1" d="M399.09,482.98h-6.34v-12.68h6.34c3.5,0,6.34,2.84,6.34,6.34s-2.84,6.34-6.34,6.34Z"/>
      <path class="st1" d="M424.46,470.3h6.34v12.68h-6.34c-3.5,0-6.34-2.84-6.34-6.34s2.84-6.34,6.34-6.34Z"/>
      <path class="st1" d="M437.14,482.98h-6.34v-12.68h6.34c3.5,0,6.34,2.84,6.34,6.34s-2.84,6.34-6.34,6.34Z"/>
      <rect class="st1" x="456.16" y="470.3" width="12.68" height="12.68"/>
      <rect class="st1" x="468.84" y="470.3" width="12.68" height="12.68"/>
      <rect class="st1" x="113.75" y="482.98" width="12.68" height="12.68"/>
      <path class="st1" d="M170.82,482.98h6.34v12.68h-6.34c-3.5,0-6.34-2.84-6.34-6.34s2.84-6.34,6.34-6.34Z"/>
      <rect class="st1" x="177.16" y="482.98" width="12.68" height="12.68"/>
      <path class="st1" d="M189.84,482.98v12.68h12.68c0-7-5.68-12.68-12.68-12.68Z"/>
      <path class="st1" d="M227.89,489.32v6.34s-4.32,0-6.34,0c-1.58,0-6.34,0-6.34,0v-6.34c0-3.5,2.84-6.34,6.34-6.34s6.34,2.84,6.34,6.34Z"/>
      <rect class="st1" x="380.07" y="482.98" width="12.68" height="12.68"/>
      <path class="st1" d="M411.77,482.98c3.5,0,6.34,2.84,6.34,6.34s-2.84,6.34-6.34,6.34-6.34-2.84-6.34-6.34,2.84-6.34,6.34-6.34Z"/>
      <path class="st1" d="M468.84,495.66v-12.68h-12.68c0,7,5.68,12.68,12.68,12.68Z"/>
      <rect class="st1" x="468.84" y="482.98" width="12.68" height="12.68"/>
      <rect class="st1" x="481.52" y="482.98" width="12.68" height="12.68"/>
      <path class="st1" d="M500.55,495.66h-6.34v-12.68h6.34c3.5,0,6.34,2.84,6.34,6.34s-2.84,6.34-6.34,6.34Z"/>
      <path class="st1" d="M101.07,508.34h12.68v-12.68c-7,0-12.68,5.68-12.68,12.68Z"/>
      <path class="st1" d="M126.43,495.66h-12.68v12.68c7,0,12.68-5.68,12.68-12.68Z"/>
      <path class="st1" d="M158.14,495.66c3.5,0,6.34,2.84,6.34,6.34s-2.84,6.34-6.34,6.34-6.34-2.84-6.34-6.34,2.84-6.34,6.34-6.34Z"/>
      <path class="st1" d="M189.84,502v-6.34h12.68v6.34c0,3.5-2.84,6.34-6.34,6.34s-6.34-2.84-6.34-6.34Z"/>
      <rect class="st1" x="215.21" y="495.66" width="12.68" height="12.68"/>
      <rect class="st1" x="380.07" y="495.66" width="12.68" height="12.68"/>
      <path class="st1" d="M399.09,508.34h-6.34v-12.68h6.34c3.5,0,6.34,2.84,6.34,6.34s-2.84,6.34-6.34,6.34Z"/>
      <path class="st1" d="M424.46,495.66h6.34v12.68h-6.34c-3.5,0-6.34-2.84-6.34-6.34s2.84-6.34,6.34-6.34Z"/>
      <path class="st1" d="M430.8,495.66v12.68h12.68c0-7-5.68-12.68-12.68-12.68Z"/>
      <path class="st1" d="M94.73,508.34h6.34v12.68h-6.34c-3.5,0-6.34-2.84-6.34-6.34s2.84-6.34,6.34-6.34Z"/>
      <path class="st1" d="M113.75,508.34h-12.68v12.68c7,0,12.68-5.68,12.68-12.68Z"/>
      <path class="st1" d="M132.77,508.34h6.34v12.68h-6.34c-3.5,0-6.34-2.84-6.34-6.34s2.84-6.34,6.34-6.34Z"/>
      <path class="st1" d="M145.46,521.02h-6.34v-12.68h6.34c3.5,0,6.34,2.84,6.34,6.34s-2.84,6.34-6.34,6.34Z"/>
      <path class="st1" d="M170.82,508.34h6.34v12.68h-6.34c-3.5,0-6.34-2.84-6.34-6.34s2.84-6.34,6.34-6.34Z"/>
      <path class="st1" d="M183.5,521.02h-6.34v-12.68h6.34c3.5,0,6.34,2.84,6.34,6.34s-2.84,6.34-6.34,6.34Z"/>
      <path class="st1" d="M202.52,521.02h12.68v-12.68c-7,0-12.68,5.68-12.68,12.68Z"/>
      <path class="st1" d="M227.89,508.34h-12.68v12.68c7,0,12.68-5.68,12.68-12.68Z"/>
      <path class="st1" d="M373.73,508.34h6.34v12.68h-6.34c-3.5,0-6.34-2.84-6.34-6.34s2.84-6.34,6.34-6.34Z"/>
      <rect class="st1" x="380.07" y="508.34" width="12.68" height="12.68"/>
      <path class="st1" d="M418.12,514.68v6.34s-4.32,0-6.34,0c-1.58,0-6.34,0-6.34,0v-6.34c0-3.5,2.84-6.34,6.34-6.34s6.34,2.84,6.34,6.34Z"/>
      <path class="st1" d="M443.48,521.02v-12.68h-12.68c0,7,5.68,12.68,12.68,12.68Z"/>
      <rect class="st1" x="443.48" y="508.34" width="12.68" height="12.68"/>
      <rect class="st1" x="456.16" y="508.34" width="12.68" height="12.68"/>
      <path class="st1" d="M468.84,508.34v12.68h12.68c0-7-5.68-12.68-12.68-12.68Z"/>
      <path class="st1" d="M500.55,508.34c3.5,0,6.34,2.84,6.34,6.34s-2.84,6.34-6.34,6.34-6.34-2.84-6.34-6.34,2.84-6.34,6.34-6.34Z"/>
      <path class="st1" d="M120.09,521.02c3.5,0,6.34,2.84,6.34,6.34s-2.84,6.34-6.34,6.34-6.34-2.84-6.34-6.34,2.84-6.34,6.34-6.34Z"/>
      <rect class="st1" x="202.52" y="521.02" width="12.68" height="12.68"/>
      <path class="st1" d="M392.75,533.7v-12.68h-12.68c0,7,5.68,12.68,12.68,12.68Z"/>
      <rect class="st1" x="392.75" y="521.02" width="12.68" height="12.68"/>
      <path class="st1" d="M418.12,521.02h-12.68v12.68c7,0,12.68-5.68,12.68-12.68Z"/>
      <rect class="st1" x="443.48" y="521.02" width="12.68" height="12.68"/>
      <rect class="st1" x="456.16" y="521.02" width="12.68" height="12.68"/>
      <path class="st1" d="M481.52,521.02h-12.68v12.68c7,0,12.68-5.68,12.68-12.68Z"/>
      <path class="st1" d="M145.46,533.7c3.5,0,6.34,2.84,6.34,6.34s-2.84,6.34-6.34,6.34-6.34-2.84-6.34-6.34,2.84-6.34,6.34-6.34Z"/>
      <path class="st1" d="M170.82,533.7c3.5,0,6.34,2.84,6.34,6.34s-2.84,6.34-6.34,6.34-6.34-2.84-6.34-6.34,2.84-6.34,6.34-6.34Z"/>
      <path class="st1" d="M189.84,546.39h12.68v-12.68c-7,0-12.68,5.68-12.68,12.68Z"/>
      <rect class="st1" x="202.52" y="533.7" width="12.68" height="12.68"/>
      <path class="st1" d="M221.55,546.39h-6.34v-12.68h6.34c3.5,0,6.34,2.84,6.34,6.34s-2.84,6.34-6.34,6.34Z"/>
      <path class="st1" d="M392.75,540.05v-6.34h12.68v6.34c0,3.5-2.84,6.34-6.34,6.34s-6.34-2.84-6.34-6.34Z"/>
      <path class="st1" d="M430.8,546.39h12.68v-12.68c-7,0-12.68,5.68-12.68,12.68Z"/>
      <rect class="st1" x="443.48" y="533.7" width="12.68" height="12.68"/>
      <rect class="st1" x="456.16" y="533.7" width="12.68" height="12.68"/>
      <path class="st1" d="M500.55,533.7c3.5,0,6.34,2.84,6.34,6.34s-2.84,6.34-6.34,6.34-6.34-2.84-6.34-6.34,2.84-6.34,6.34-6.34Z"/>
      <path class="st1" d="M101.07,552.73v6.34s-4.32,0-6.34,0c-1.58,0-6.34,0-6.34,0v-6.34c0-3.5,2.84-6.34,6.34-6.34s6.34,2.84,6.34,6.34Z"/>
      <path class="st1" d="M120.09,546.39c3.5,0,6.34,2.84,6.34,6.34s-2.84,6.34-6.34,6.34-6.34-2.84-6.34-6.34,2.84-6.34,6.34-6.34Z"/>
      <path class="st1" d="M164.48,552.73v6.34s-4.32,0-6.34,0c-1.58,0-6.34,0-6.34,0v-6.34c0-3.5,2.84-6.34,6.34-6.34s6.34,2.84,6.34,6.34Z"/>
      <path class="st1" d="M177.16,559.07h12.68v-12.68c-7,0-12.68,5.68-12.68,12.68Z"/>
      <rect class="st1" x="189.84" y="546.39" width="12.68" height="12.68"/>
      <rect class="st1" x="202.52" y="546.39" width="12.68" height="12.68"/>
      <path class="st1" d="M373.73,546.39c3.5,0,6.34,2.84,6.34,6.34s-2.84,6.34-6.34,6.34-6.34-2.84-6.34-6.34,2.84-6.34,6.34-6.34Z"/>
      <path class="st1" d="M424.46,546.39h6.34v12.68h-6.34c-3.5,0-6.34-2.84-6.34-6.34s2.84-6.34,6.34-6.34Z"/>
      <rect class="st1" x="430.8" y="546.39" width="12.68" height="12.68"/>
      <rect class="st1" x="443.48" y="546.39" width="12.68" height="12.68"/>
      <path class="st1" d="M468.84,546.39h-12.68v12.68c7,0,12.68-5.68,12.68-12.68Z"/>
      <path class="st1" d="M494.21,552.73v6.34s-4.32,0-6.34,0c-1.58,0-6.34,0-6.34,0v-6.34c0-3.5,2.84-6.34,6.34-6.34s6.34,2.84,6.34,6.34Z"/>
      <rect class="st1" x="88.39" y="559.07" width="12.68" height="12.68"/>
      <path class="st1" d="M145.46,559.07h6.34v12.68h-6.34c-3.5,0-6.34-2.84-6.34-6.34s2.84-6.34,6.34-6.34Z"/>
      <rect class="st1" x="151.8" y="559.07" width="12.68" height="12.68"/>
      <rect class="st1" x="164.48" y="559.07" width="12.68" height="12.68"/>
      <rect class="st1" x="177.16" y="559.07" width="12.68" height="12.68"/>
      <rect class="st1" x="189.84" y="559.07" width="12.68" height="12.68"/>
      <rect class="st1" x="202.52" y="559.07" width="12.68" height="12.68"/>
      <rect class="st1" x="215.21" y="559.07" width="12.68" height="12.68"/>
      <path class="st1" d="M234.23,571.75h-6.34v-12.68h6.34c3.5,0,6.34,2.84,6.34,6.34s-2.84,6.34-6.34,6.34Z"/>
      <path class="st1" d="M272.27,559.07h6.34v12.68h-6.34c-3.5,0-6.34-2.84-6.34-6.34s2.84-6.34,6.34-6.34Z"/>
      <rect class="st1" x="278.62" y="559.07" width="12.68" height="12.68"/>
      <rect class="st1" x="291.3" y="559.07" width="12.68" height="12.68"/>
      <path class="st1" d="M310.32,571.75h-6.34v-12.68h6.34c3.5,0,6.34,2.84,6.34,6.34s-2.84,6.34-6.34,6.34Z"/>
      <path class="st1" d="M335.68,559.07h6.34v12.68h-6.34c-3.5,0-6.34-2.84-6.34-6.34s2.84-6.34,6.34-6.34Z"/>
      <rect class="st1" x="342.02" y="559.07" width="12.68" height="12.68"/>
      <path class="st1" d="M361.05,571.75h-6.34v-12.68h6.34c3.5,0,6.34,2.84,6.34,6.34s-2.84,6.34-6.34,6.34Z"/>
      <path class="st1" d="M380.07,571.75h12.68v-12.68c-7,0-12.68,5.68-12.68,12.68Z"/>
      <path class="st1" d="M399.09,571.75h-6.34v-12.68h6.34c3.5,0,6.34,2.84,6.34,6.34s-2.84,6.34-6.34,6.34Z"/>
      <rect class="st1" x="481.52" y="559.07" width="12.68" height="12.68"/>
      <rect class="st1" x="88.39" y="571.75" width="12.68" height="12.68"/>
      <path class="st1" d="M126.43,578.09v6.34s-4.32,0-6.34,0c-1.58,0-6.34,0-6.34,0v-6.34c0-3.5,2.84-6.34,6.34-6.34s6.34,2.84,6.34,6.34Z"/>
      <rect class="st1" x="177.16" y="571.75" width="12.68" height="12.68"/>
      <rect class="st1" x="189.84" y="571.75" width="12.68" height="12.68"/>
      <rect class="st1" x="202.52" y="571.75" width="12.68" height="12.68"/>
      <path class="st1" d="M291.3,578.09v-6.34h12.68v6.34c0,3.5-2.84,6.34-6.34,6.34s-6.34-2.84-6.34-6.34Z"/>
      <path class="st1" d="M329.34,578.09v6.34s-4.32,0-6.34,0c-1.58,0-6.34,0-6.34,0v-6.34c0-3.5,2.84-6.34,6.34-6.34s6.34,2.84,6.34,6.34Z"/>
      <path class="st1" d="M342.02,578.09v-6.34h12.68v6.34c0,3.5-2.84,6.34-6.34,6.34s-6.34-2.84-6.34-6.34Z"/>
      <path class="st1" d="M373.73,571.75h6.34v12.68h-6.34c-3.5,0-6.34-2.84-6.34-6.34s2.84-6.34,6.34-6.34Z"/>
      <path class="st1" d="M392.75,571.75h-12.68v12.68c7,0,12.68-5.68,12.68-12.68Z"/>
      <path class="st1" d="M430.8,584.43h12.68v-12.68c-7,0-12.68,5.68-12.68,12.68Z"/>
      <rect class="st1" x="443.48" y="571.75" width="12.68" height="12.68"/>
      <rect class="st1" x="456.16" y="571.75" width="12.68" height="12.68"/>
      <rect class="st1" x="468.84" y="571.75" width="12.68" height="12.68"/>
      <path class="st1" d="M494.21,571.75h-12.68v12.68c7,0,12.68-5.68,12.68-12.68Z"/>
      <path class="st1" d="M101.07,597.11v-12.68h-12.68c0,7,5.68,12.68,12.68,12.68Z"/>
      <rect class="st1" x="101.07" y="584.43" width="12.68" height="12.68"/>
      <path class="st1" d="M126.43,584.43h-12.68v12.68c7,0,12.68-5.68,12.68-12.68Z"/>
      <path class="st1" d="M145.46,584.43c3.5,0,6.34,2.84,6.34,6.34s-2.84,6.34-6.34,6.34-6.34-2.84-6.34-6.34,2.84-6.34,6.34-6.34Z"/>
      <path class="st1" d="M170.82,584.43h6.34v12.68h-6.34c-3.5,0-6.34-2.84-6.34-6.34s2.84-6.34,6.34-6.34Z"/>
      <path class="st1" d="M189.84,584.43h-12.68v12.68c7,0,12.68-5.68,12.68-12.68Z"/>
      <path class="st1" d="M215.21,597.11v-12.68h-12.68c0,7,5.68,12.68,12.68,12.68Z"/>
      <rect class="st1" x="215.21" y="584.43" width="12.68" height="12.68"/>
      <rect class="st1" x="227.89" y="584.43" width="12.68" height="12.68"/>
      <rect class="st1" x="240.57" y="584.43" width="12.68" height="12.68"/>
      <path class="st1" d="M253.25,584.43v12.68h12.68c0-7-5.68-12.68-12.68-12.68Z"/>
      <path class="st1" d="M284.96,584.43c3.5,0,6.34,2.84,6.34,6.34s-2.84,6.34-6.34,6.34-6.34-2.84-6.34-6.34,2.84-6.34,6.34-6.34Z"/>
      <path class="st1" d="M329.34,597.11v-12.68h-12.68c0,7,5.68,12.68,12.68,12.68Z"/>
      <path class="st1" d="M329.34,584.43v12.68h12.68c0-7-5.68-12.68-12.68-12.68Z"/>
      <path class="st1" d="M392.75,597.11h12.68v-12.68c-7,0-12.68,5.68-12.68,12.68Z"/>
      <rect class="st1" x="405.43" y="584.43" width="12.68" height="12.68"/>
      <rect class="st1" x="418.12" y="584.43" width="12.68" height="12.68"/>
      <rect class="st1" x="430.8" y="584.43" width="12.68" height="12.68"/>
      <rect class="st1" x="443.48" y="584.43" width="12.68" height="12.68"/>
      <path class="st1" d="M468.84,584.43h-12.68v12.68c7,0,12.68-5.68,12.68-12.68Z"/>
      <path class="st1" d="M196.18,597.11c3.5,0,6.34,2.84,6.34,6.34s-2.84,6.34-6.34,6.34-6.34-2.84-6.34-6.34,2.84-6.34,6.34-6.34Z"/>
      <path class="st1" d="M253.25,603.45v-6.34h12.68v6.34c0,3.5-2.84,6.34-6.34,6.34s-6.34-2.84-6.34-6.34Z"/>
      <path class="st1" d="M303.98,603.45v6.34s-4.32,0-6.34,0c-1.58,0-6.34,0-6.34,0v-6.34c0-3.5,2.84-6.34,6.34-6.34s6.34,2.84,6.34,6.34Z"/>
      <rect class="st1" x="329.34" y="597.11" width="12.68" height="12.68"/>
      <path class="st1" d="M373.73,597.11c3.5,0,6.34,2.84,6.34,6.34s-2.84,6.34-6.34,6.34-6.34-2.84-6.34-6.34,2.84-6.34,6.34-6.34Z"/>
      <rect class="st1" x="392.75" y="597.11" width="12.68" height="12.68"/>
      <rect class="st1" x="443.48" y="597.11" width="12.68" height="12.68"/>
      <path class="st1" d="M481.52,609.8h12.68v-12.68c-7,0-12.68,5.68-12.68,12.68Z"/>
      <path class="st1" d="M500.55,609.8h-6.34v-12.68h6.34c3.5,0,6.34,2.84,6.34,6.34s-2.84,6.34-6.34,6.34Z"/>
      <path class="st1" d="M215.21,622.48h12.68v-12.68c-7,0-12.68,5.68-12.68,12.68Z"/>
      <rect class="st1" x="227.89" y="609.8" width="12.68" height="12.68"/>
      <path class="st1" d="M246.91,622.48h-6.34v-12.68h6.34c3.5,0,6.34,2.84,6.34,6.34s-2.84,6.34-6.34,6.34Z"/>
      <path class="st1" d="M272.27,609.8c3.5,0,6.34,2.84,6.34,6.34s-2.84,6.34-6.34,6.34-6.34-2.84-6.34-6.34,2.84-6.34,6.34-6.34Z"/>
      <path class="st1" d="M303.98,622.48v-12.68h-12.68c0,7,5.68,12.68,12.68,12.68Z"/>
      <path class="st1" d="M303.98,609.8v12.68h12.68c0-7-5.68-12.68-12.68-12.68Z"/>
      <rect class="st1" x="329.34" y="609.8" width="12.68" height="12.68"/>
      <path class="st1" d="M361.05,609.8c3.5,0,6.34,2.84,6.34,6.34s-2.84,6.34-6.34,6.34-6.34-2.84-6.34-6.34,2.84-6.34,6.34-6.34Z"/>
      <path class="st1" d="M380.07,622.48h12.68v-12.68c-7,0-12.68,5.68-12.68,12.68Z"/>
      <rect class="st1" x="392.75" y="609.8" width="12.68" height="12.68"/>
      <path class="st1" d="M424.46,609.8c3.5,0,6.34,2.84,6.34,6.34s-2.84,6.34-6.34,6.34-6.34-2.84-6.34-6.34,2.84-6.34,6.34-6.34Z"/>
      <rect class="st1" x="443.48" y="609.8" width="12.68" height="12.68"/>
      <path class="st1" d="M468.84,622.48h12.68v-12.68c-7,0-12.68,5.68-12.68,12.68Z"/>
      <rect class="st1" x="481.52" y="609.8" width="12.68" height="12.68"/>
      <path class="st1" d="M196.18,622.48h6.34v12.68h-6.34c-3.5,0-6.34-2.84-6.34-6.34s2.84-6.34,6.34-6.34Z"/>
      <rect class="st1" x="202.52" y="622.48" width="12.68" height="12.68"/>
      <rect class="st1" x="215.21" y="622.48" width="12.68" height="12.68"/>
      <path class="st1" d="M240.57,622.48h-12.68v12.68c7,0,12.68-5.68,12.68-12.68Z"/>
      <path class="st1" d="M259.59,622.48c3.5,0,6.34,2.84,6.34,6.34s-2.84,6.34-6.34,6.34-6.34-2.84-6.34-6.34,2.84-6.34,6.34-6.34Z"/>
      <path class="st1" d="M284.96,622.48c3.5,0,6.34,2.84,6.34,6.34s-2.84,6.34-6.34,6.34-6.34-2.84-6.34-6.34,2.84-6.34,6.34-6.34Z"/>
      <rect class="st1" x="303.98" y="622.48" width="12.68" height="12.68"/>
      <rect class="st1" x="316.66" y="622.48" width="12.68" height="12.68"/>
      <rect class="st1" x="329.34" y="622.48" width="12.68" height="12.68"/>
      <path class="st1" d="M342.02,622.48v12.68h12.68c0-7-5.68-12.68-12.68-12.68Z"/>
      <path class="st1" d="M392.75,635.16v-12.68h-12.68c0,7,5.68,12.68,12.68,12.68Z"/>
      <rect class="st1" x="392.75" y="622.48" width="12.68" height="12.68"/>
      <rect class="st1" x="443.48" y="622.48" width="12.68" height="12.68"/>
      <path class="st1" d="M481.52,635.16v-12.68h-12.68c0,7,5.68,12.68,12.68,12.68Z"/>
      <rect class="st1" x="481.52" y="622.48" width="12.68" height="12.68"/>
      <path class="st1" d="M215.21,647.84v-12.68h-12.68c0,7,5.68,12.68,12.68,12.68Z"/>
      <path class="st1" d="M227.89,635.16h-12.68v12.68c7,0,12.68-5.68,12.68-12.68Z"/>
      <path class="st1" d="M246.91,635.16c3.5,0,6.34,2.84,6.34,6.34s-2.84,6.34-6.34,6.34-6.34-2.84-6.34-6.34,2.84-6.34,6.34-6.34Z"/>
      <path class="st1" d="M272.27,635.16c3.5,0,6.34,2.84,6.34,6.34s-2.84,6.34-6.34,6.34-6.34-2.84-6.34-6.34,2.84-6.34,6.34-6.34Z"/>
      <path class="st1" d="M297.64,635.16h6.34v12.68h-6.34c-3.5,0-6.34-2.84-6.34-6.34s2.84-6.34,6.34-6.34Z"/>
      <rect class="st1" x="303.98" y="635.16" width="12.68" height="12.68"/>
      <rect class="st1" x="342.02" y="635.16" width="12.68" height="12.68"/>
      <path class="st1" d="M354.71,635.16v12.68h12.68c0-7-5.68-12.68-12.68-12.68Z"/>
      <rect class="st1" x="392.75" y="635.16" width="12.68" height="12.68"/>
      <rect class="st1" x="405.43" y="635.16" width="12.68" height="12.68"/>
      <rect class="st1" x="418.12" y="635.16" width="12.68" height="12.68"/>
      <rect class="st1" x="430.8" y="635.16" width="12.68" height="12.68"/>
      <rect class="st1" x="443.48" y="635.16" width="12.68" height="12.68"/>
      <path class="st1" d="M456.16,635.16v12.68h12.68c0-7-5.68-12.68-12.68-12.68Z"/>
      <rect class="st1" x="481.52" y="635.16" width="12.68" height="12.68"/>
      <path class="st1" d="M500.55,647.84h-6.34v-12.68h6.34c3.5,0,6.34,2.84,6.34,6.34s-2.84,6.34-6.34,6.34Z"/>
      <path class="st1" d="M259.59,647.84c3.5,0,6.34,2.84,6.34,6.34s-2.84,6.34-6.34,6.34-6.34-2.84-6.34-6.34,2.84-6.34,6.34-6.34Z"/>
      <path class="st1" d="M316.66,660.52v-12.68h-12.68c0,7,5.68,12.68,12.68,12.68Z"/>
      <path class="st1" d="M323,660.52h-6.34v-12.68h6.34c3.5,0,6.34,2.84,6.34,6.34s-2.84,6.34-6.34,6.34Z"/>
      <rect class="st1" x="342.02" y="647.84" width="12.68" height="12.68"/>
      <rect class="st1" x="354.71" y="647.84" width="12.68" height="12.68"/>
      <rect class="st1" x="367.39" y="647.84" width="12.68" height="12.68"/>
      <rect class="st1" x="380.07" y="647.84" width="12.68" height="12.68"/>
      <rect class="st1" x="392.75" y="647.84" width="12.68" height="12.68"/>
      <path class="st1" d="M418.12,647.84h-12.68v12.68c7,0,12.68-5.68,12.68-12.68Z"/>
      <path class="st1" d="M443.48,660.52v-12.68h-12.68c0,7,5.68,12.68,12.68,12.68Z"/>
      <rect class="st1" x="443.48" y="647.84" width="12.68" height="12.68"/>
      <rect class="st1" x="456.16" y="647.84" width="12.68" height="12.68"/>
      <rect class="st1" x="468.84" y="647.84" width="12.68" height="12.68"/>
      <rect class="st1" x="481.52" y="647.84" width="12.68" height="12.68"/>
      <path class="st1" d="M234.23,660.52h6.34v12.68h-6.34c-3.5,0-6.34-2.84-6.34-6.34s2.84-6.34,6.34-6.34Z"/>
      <path class="st1" d="M246.91,673.2h-6.34v-12.68h6.34c3.5,0,6.34,2.84,6.34,6.34s-2.84,6.34-6.34,6.34Z"/>
      <path class="st1" d="M297.64,660.52c3.5,0,6.34,2.84,6.34,6.34s-2.84,6.34-6.34,6.34-6.34-2.84-6.34-6.34,2.84-6.34,6.34-6.34Z"/>
      <rect class="st1" x="342.02" y="660.52" width="12.68" height="12.68"/>
      <rect class="st1" x="354.71" y="660.52" width="12.68" height="12.68"/>
      <rect class="st1" x="367.39" y="660.52" width="12.68" height="12.68"/>
      <rect class="st1" x="380.07" y="660.52" width="12.68" height="12.68"/>
      <path class="st1" d="M405.43,660.52h-12.68v12.68c7,0,12.68-5.68,12.68-12.68Z"/>
      <path class="st1" d="M456.16,673.2v-12.68h-12.68c0,7,5.68,12.68,12.68,12.68Z"/>
      <rect class="st1" x="456.16" y="660.52" width="12.68" height="12.68"/>
      <rect class="st1" x="468.84" y="660.52" width="12.68" height="12.68"/>
      <rect class="st1" x="481.52" y="660.52" width="12.68" height="12.68"/>
      <path class="st1" d="M500.55,673.2h-6.34v-12.68h6.34c3.5,0,6.34,2.84,6.34,6.34s-2.84,6.34-6.34,6.34Z"/>
      <path class="st1" d="M208.87,673.2h6.34v12.68h-6.34c-3.5,0-6.34-2.84-6.34-6.34s2.84-6.34,6.34-6.34Z"/>
      <path class="st1" d="M221.55,685.89h-6.34v-12.68h6.34c3.5,0,6.34,2.84,6.34,6.34s-2.84,6.34-6.34,6.34Z"/>
      <path class="st1" d="M316.66,679.55v6.34s-4.32,0-6.34,0c-1.58,0-6.34,0-6.34,0v-6.34c0-3.5,2.84-6.34,6.34-6.34s6.34,2.84,6.34,6.34Z"/>
      <path class="st1" d="M329.34,685.89h12.68v-12.68c-7,0-12.68,5.68-12.68,12.68Z"/>
      <path class="st1" d="M354.71,673.2h-12.68v12.68c7,0,12.68-5.68,12.68-12.68Z"/>
      <path class="st1" d="M405.43,685.89h12.68v-12.68c-7,0-12.68,5.68-12.68,12.68Z"/>
      <path class="st1" d="M418.12,673.2v12.68h12.68c0-7-5.68-12.68-12.68-12.68Z"/>
      <path class="st1" d="M468.84,685.89v-12.68h-12.68c0,7,5.68,12.68,12.68,12.68Z"/>
      <rect class="st1" x="468.84" y="673.2" width="12.68" height="12.68"/>
      <path class="st1" d="M246.91,685.89h6.34v12.68h-6.34c-3.5,0-6.34-2.84-6.34-6.34s2.84-6.34,6.34-6.34Z"/>
      <path class="st1" d="M259.59,698.57h-6.34v-12.68h6.34c3.5,0,6.34,2.84,6.34,6.34s-2.84,6.34-6.34,6.34Z"/>
      <path class="st1" d="M297.64,685.89h6.34v12.68h-6.34c-3.5,0-6.34-2.84-6.34-6.34s2.84-6.34,6.34-6.34Z"/>
      <path class="st1" d="M316.66,685.89h-12.68v12.68c7,0,12.68-5.68,12.68-12.68Z"/>
      <path class="st1" d="M329.34,692.23v-6.34h12.68v6.34c0,3.5-2.84,6.34-6.34,6.34s-6.34-2.84-6.34-6.34Z"/>
      <path class="st1" d="M361.05,685.89c3.5,0,6.34,2.84,6.34,6.34s-2.84,6.34-6.34,6.34-6.34-2.84-6.34-6.34,2.84-6.34,6.34-6.34Z"/>
      <path class="st1" d="M399.09,685.89h6.34v12.68h-6.34c-3.5,0-6.34-2.84-6.34-6.34s2.84-6.34,6.34-6.34Z"/>
      <rect class="st1" x="405.43" y="685.89" width="12.68" height="12.68"/>
      <path class="st1" d="M430.8,685.89h-12.68v12.68c7,0,12.68-5.68,12.68-12.68Z"/>
      <path class="st1" d="M481.52,698.57v-12.68h-12.68c0,7,5.68,12.68,12.68,12.68Z"/>
      <path class="st1" d="M487.87,698.57h-6.34v-12.68h6.34c3.5,0,6.34,2.84,6.34,6.34s-2.84,6.34-6.34,6.34Z"/>
      <path class="st1" d="M146.85,280.08h-28.16c-13.72,0-25.35,9.07-29.07,21.46-.38,1.28-.68,2.6-.89,3.95-.23,1.49-.35,3.01-.35,4.56v28.83c0,16.53,13.6,29.97,30.31,29.97h14.08s14.08,0,14.08,0c16.71,0,30.31-13.44,30.31-29.97v-28.82c0-16.52-13.6-29.96-30.31-29.96ZM163.84,338.86c0,9.18-7.62,16.65-17,16.65h-14.07s-14.07,0-14.07,0c-9.37,0-17-7.47-17-16.65v-28.83c0-2.87.74-5.57,2.05-7.93,1.26-2.27,3.04-4.22,5.19-5.7,2.76-1.9,6.12-3.02,9.75-3.02h28.16c9.37,0,16.99,7.47,16.99,16.64v28.83Z"/>
      <path class="st1" d="M476.58,280.08h-28.16c-13.72,0-25.35,9.07-29.07,21.46-.38,1.28-.68,2.6-.89,3.95-.23,1.49-.35,3.01-.35,4.56v28.83c0,16.53,13.6,29.97,30.31,29.97h14.08s14.08,0,14.08,0c16.71,0,30.31-13.44,30.31-29.97v-28.82c0-16.52-13.6-29.96-30.31-29.96ZM493.57,338.86c0,9.18-7.62,16.65-17,16.65h-14.07s-14.07,0-14.07,0c-9.37,0-17-7.47-17-16.65v-28.83c0-2.87.74-5.57,2.05-7.93,1.26-2.27,3.04-4.22,5.19-5.7,2.76-1.9,6.12-3.02,9.75-3.02h28.16c9.37,0,16.99,7.47,16.99,16.64v28.83Z"/>
      <path class="st1" d="M146.85,609.8h-28.16c-13.72,0-25.35,9.07-29.07,21.46-.38,1.28-.68,2.6-.89,3.95-.23,1.49-.35,3.01-.35,4.56v28.83c0,16.53,13.6,29.97,30.31,29.97h14.08s14.08,0,14.08,0c16.71,0,30.31-13.44,30.31-29.97v-28.82c0-16.52-13.6-29.96-30.31-29.96ZM163.84,668.59c0,9.18-7.62,16.65-17,16.65h-14.07s-14.07,0-14.07,0c-9.37,0-17-7.47-17-16.65v-28.83c0-2.87.74-5.57,2.05-7.93,1.26-2.27,3.04-4.22,5.19-5.7,2.76-1.9,6.12-3.02,9.75-3.02h28.16c9.37,0,16.99,7.47,16.99,16.64v28.83Z"/>
      <path class="st1" d="M124.16,343.48c-5.74,0-10.41-4.58-10.41-10.2v-17.65c0-1.76.46-3.41,1.26-4.85.77-1.39,1.86-2.59,3.18-3.49,1.69-1.16,3.75-1.85,5.97-1.85h17.24c5.74,0,10.41,4.57,10.41,10.19v17.65c0,5.62-4.67,10.2-10.41,10.2h-17.24Z"/>
      <path class="st1" d="M453.88,343.48c-5.74,0-10.41-4.58-10.41-10.2v-17.65c0-1.76.46-3.41,1.26-4.85.77-1.39,1.86-2.59,3.18-3.49,1.69-1.16,3.75-1.85,5.97-1.85h17.24c5.74,0,10.41,4.57,10.41,10.19v17.65c0,5.62-4.67,10.2-10.41,10.2h-17.24Z"/>
      <path class="st1" d="M124.16,673.2c-5.74,0-10.41-4.58-10.41-10.2v-17.65c0-1.76.46-3.41,1.26-4.85.77-1.39,1.86-2.59,3.18-3.49,1.69-1.16,3.75-1.85,5.97-1.85h17.24c5.74,0,10.41,4.57,10.41,10.19v17.65c0,5.62-4.67,10.2-10.41,10.2h-17.24Z"/>
    </g>
    <g id="Artboard">
      <circle id="Oval" class="st1" cx="296.65" cy="488.33" r="58.06"/>
      <path id="Path-3" class="st2" d="M264.87,487.72c16.93-7.37,28.21-12.24,33.86-14.58,16.12-6.71,19.47-7.87,21.66-7.91.48,0,1.55.11,2.25.68.59.48.75,1.12.83,1.57s.17,1.48.1,2.29c-.87,9.18-4.65,31.46-6.58,41.74-.81,4.35-2.42,5.81-3.97,5.95-3.37.31-5.93-2.23-9.2-4.37-5.11-3.35-8-5.43-12.96-8.7-5.73-3.78-2.02-5.85,1.25-9.25.85-.89,15.71-14.4,16-15.63.04-.15.07-.72-.27-1.03s-.84-.2-1.2-.12c-.51.12-8.68,5.51-24.49,16.19-2.32,1.59-4.42,2.37-6.3,2.33-2.07-.04-6.06-1.17-9.02-2.14-3.64-1.18-6.53-1.81-6.27-3.81.13-1.05,1.57-2.11,4.32-3.21Z"/>
    </g>
  </g>
</svg>